<svg width="115" height="21" viewBox="0 0 115 21" fill="none" xmlns="http://www.w3.org/2000/svg">
<path d="M16.6409 1.87409C16.8854 2.10094 17.0108 2.22688 17.1028 2.54566C17.091 3.33465 16.7588 3.6706 16.2224 4.19599C16.0739 4.34666 15.9255 4.49743 15.7772 4.64832C15.6709 4.75521 15.6709 4.75521 15.5623 4.86427C15.3353 5.09681 15.1246 5.34016 14.9162 5.58913C14.5754 5.97454 14.2368 6.34074 13.7543 6.54647C13.2143 6.54647 12.8032 6.42349 12.2965 6.25355C11.1086 5.88865 9.89359 5.98685 8.78928 6.54647C7.66919 7.21564 6.88539 8.19386 6.56656 9.4542C6.32333 10.7254 6.52106 11.9335 7.20162 13.0478C7.87562 14.0179 8.75319 14.6726 9.94393 14.891C11.761 15.0162 11.761 15.0162 13.3628 14.281C14.0642 13.6522 14.6934 12.9486 15.3072 12.2369C16.0428 11.4005 16.5365 10.978 17.6801 10.8902C18.2719 10.8712 18.8635 10.8685 19.4554 10.867C19.5824 10.8665 19.5824 10.8665 19.7119 10.866C20.1591 10.8643 20.6064 10.8632 21.0537 10.8627C21.5133 10.8621 21.973 10.8594 22.4326 10.8561C22.7884 10.854 23.1443 10.8534 23.5001 10.8532C23.6695 10.8529 23.8389 10.852 24.0083 10.8505C25.9233 10.8346 25.9233 10.8346 26.6886 11.4077C26.7434 11.469 26.7982 11.5303 26.8547 11.5935C26.9182 11.6627 26.9816 11.7319 27.047 11.8033C27.1114 11.8768 27.1758 11.9504 27.2421 12.0262C27.3114 12.1024 27.3806 12.1787 27.452 12.2573C27.5929 12.4126 27.7331 12.5686 27.8727 12.7251C28.1068 12.9866 28.3455 13.2436 28.5852 13.5001C29.0124 13.9577 29.4343 14.4201 29.8546 14.8839C30.3162 15.3932 30.7846 15.8959 31.2541 16.398C31.6853 16.8596 32.1109 17.326 32.5346 17.7943C32.7981 18.0828 33.064 18.3688 33.331 18.6541C33.5659 18.9051 33.8002 19.1567 34.0342 19.4085C34.1757 19.5604 34.3176 19.712 34.4597 19.8635C34.5332 19.9436 34.6067 20.0238 34.6825 20.1064C34.745 20.1738 34.8075 20.2413 34.8719 20.3109C35 20.4922 35 20.4922 35 20.8351C33.9581 20.8457 32.9163 20.8538 31.8744 20.8588C31.3905 20.8612 30.9067 20.8644 30.4229 20.8696C29.9558 20.8746 29.4886 20.8773 29.0214 20.8785C28.8434 20.8793 28.6655 20.881 28.4875 20.8834C28.2376 20.8868 27.9879 20.8872 27.738 20.887C27.596 20.888 27.4539 20.889 27.3076 20.8901C26.5969 20.7899 26.1712 20.3569 25.7194 19.8349C25.393 19.465 25.0634 19.1071 24.7091 18.7632C24.3387 18.4023 23.9977 18.0245 23.6591 17.6344C23.3729 17.3163 23.0661 17.0211 22.7593 16.7226C22.4563 16.4174 22.1772 16.0948 21.8996 15.7671C21.6348 15.4844 21.4321 15.3569 21.0462 15.2982C20.5519 15.3662 20.3924 15.5624 20.0544 15.9198C19.9712 16.0062 19.9712 16.0062 19.8864 16.0944C19.5861 16.4089 19.2983 16.7332 19.0152 17.0629C17.8017 18.455 16.3601 19.4953 14.6708 20.2492C14.6016 20.2806 14.5323 20.3119 14.461 20.3442C13.2358 20.8617 11.9801 21.0108 10.6584 20.9994C10.5169 20.9985 10.3754 20.9977 10.2296 20.9968C9.14127 20.9772 8.19779 20.8602 7.17276 20.4922C7.03508 20.4437 6.8974 20.3952 6.75555 20.3452C4.00813 19.2781 2.06163 17.1639 0.789215 14.591C-0.297732 12.1033 -0.217601 9.22212 0.757642 6.72106C1.98826 3.96387 3.98226 1.85875 6.82636 0.716717C10.157 -0.515915 13.7166 -0.176558 16.6409 1.87409Z" fill="url(#paint0_linear_414_30568)"/>
<path d="M29.0296 0.00929764C29.2022 0.010164 29.3748 0.0108237 29.5474 0.0112864C29.999 0.013047 30.4505 0.0175944 30.902 0.0227448C31.3638 0.0275121 31.8257 0.0296128 32.2875 0.0319455C33.1917 0.0369015 34.0958 0.0448052 35 0.0545933C34.9156 0.448183 34.8226 0.61998 34.5295 0.89528C34.2514 1.16601 33.9883 1.43838 33.7382 1.73597C33.2115 2.35662 32.6563 2.9501 32.1053 3.54824C31.733 3.95235 31.3627 4.35826 30.9936 4.76534C30.9378 4.82683 30.8821 4.88832 30.8246 4.95167C30.6026 5.19647 30.3807 5.44137 30.1589 5.68637C29.4634 6.45469 28.7652 7.22048 28.0637 7.98314C27.9941 8.05897 27.9245 8.1348 27.8528 8.21293C27.6509 8.43208 27.4475 8.64982 27.2439 8.86731C27.175 8.94238 27.1062 9.01746 27.0352 9.09481C26.9672 9.16712 26.8992 9.23942 26.8291 9.31392C26.769 9.37859 26.7089 9.44326 26.647 9.50988C26.1537 9.92389 25.6242 9.94629 25.0082 9.94829C24.9228 9.94944 24.8374 9.95059 24.7494 9.95178C24.4681 9.95515 24.1868 9.95674 23.9054 9.95803C23.7089 9.95936 23.5125 9.9607 23.316 9.96203C22.9044 9.96447 22.4928 9.96582 22.0812 9.96663C21.5553 9.96791 21.0296 9.97348 20.5038 9.98008C20.098 9.98441 19.6922 9.98561 19.2864 9.98596C19.0926 9.98666 18.8989 9.98851 18.7051 9.99157C16.8762 10.0184 16.8762 10.0184 16.2253 9.39827C16.1727 9.33785 16.1201 9.27743 16.066 9.21518C16.0123 9.15804 15.9586 9.10091 15.9033 9.04204C15.7583 8.87816 15.6265 8.70245 15.4956 8.52669C15.4086 8.41323 15.3216 8.29978 15.2319 8.18289C14.994 7.73891 14.9579 7.51099 15.0394 7.012C15.2106 6.71105 15.4265 6.46788 15.6596 6.2148C15.7216 6.14456 15.7836 6.07433 15.8474 6.00196C16.3568 5.42979 16.8881 4.88046 17.4347 4.34499C17.5502 4.22056 17.5502 4.22056 17.6681 4.0936C17.8909 3.88117 17.8909 3.88117 18.2616 3.74347C18.9018 3.77601 19.1697 4.12428 19.6018 4.57691C19.6852 4.66166 19.7686 4.74641 19.8545 4.83373C20.0123 4.99424 20.1691 5.15585 20.3245 5.31885C20.5858 5.57454 20.7331 5.61879 21.0953 5.68574C21.7654 5.58765 22.0619 5.18308 22.5104 4.69286C22.5926 4.60662 22.6748 4.52037 22.7594 4.43151C23.1486 4.02017 23.5251 3.5997 23.8925 3.16821C24.2548 2.74302 24.6381 2.34616 25.034 1.95339C25.3924 1.59756 25.7303 1.25524 26.0347 0.849078C26.8765 -0.0889428 27.872 -0.0078457 29.0296 0.00929764Z" fill="url(#paint1_linear_414_30568)"/>
<path d="M52.6136 8.72727H49.4091C49.3864 8.46212 49.3258 8.22159 49.2273 8.00568C49.1326 7.78977 49 7.60417 48.8295 7.44886C48.6629 7.28977 48.4602 7.16856 48.2216 7.08523C47.983 6.99811 47.7121 6.95455 47.4091 6.95455C46.8788 6.95455 46.4299 7.08333 46.0625 7.34091C45.6989 7.59848 45.4223 7.9678 45.233 8.44886C45.0473 8.92992 44.9545 9.50758 44.9545 10.1818C44.9545 10.8939 45.0492 11.4905 45.2386 11.9716C45.4318 12.4489 45.7102 12.8087 46.0739 13.0511C46.4375 13.2898 46.875 13.4091 47.3864 13.4091C47.678 13.4091 47.9394 13.3731 48.1705 13.3011C48.4015 13.2254 48.6023 13.1174 48.7727 12.9773C48.9432 12.8371 49.0814 12.6686 49.1875 12.4716C49.2973 12.2708 49.3712 12.0455 49.4091 11.7955L52.6136 11.8182C52.5758 12.3106 52.4375 12.8125 52.1989 13.3239C51.9602 13.8314 51.6212 14.3011 51.1818 14.733C50.7462 15.161 50.2064 15.5057 49.5625 15.767C48.9186 16.0284 48.1705 16.1591 47.3182 16.1591C46.25 16.1591 45.2917 15.9299 44.4432 15.4716C43.5985 15.0133 42.9299 14.339 42.4375 13.4489C41.9489 12.5587 41.7045 11.4697 41.7045 10.1818C41.7045 8.88636 41.9545 7.79545 42.4545 6.90909C42.9545 6.01894 43.6288 5.34659 44.4773 4.89205C45.3258 4.43371 46.2727 4.20455 47.3182 4.20455C48.053 4.20455 48.7292 4.30492 49.3466 4.50568C49.964 4.70644 50.5057 5 50.9716 5.38636C51.4375 5.76894 51.8125 6.24053 52.0966 6.80114C52.3807 7.36174 52.553 8.00379 52.6136 8.72727ZM58.2969 16.1591C57.3499 16.1591 56.5393 15.9716 55.8651 15.5966C55.1908 15.2178 54.6738 14.6913 54.3139 14.017C53.9541 13.339 53.7741 12.553 53.7741 11.6591C53.7741 10.7652 53.9541 9.98106 54.3139 9.30682C54.6738 8.62879 55.1908 8.10227 55.8651 7.72727C56.5393 7.34848 57.3499 7.15909 58.2969 7.15909C59.2438 7.15909 60.0545 7.34848 60.7287 7.72727C61.4029 8.10227 61.92 8.62879 62.2798 9.30682C62.6397 9.98106 62.8196 10.7652 62.8196 11.6591C62.8196 12.553 62.6397 13.339 62.2798 14.017C61.92 14.6913 61.4029 15.2178 60.7287 15.5966C60.0545 15.9716 59.2438 16.1591 58.2969 16.1591ZM58.3196 13.8409C58.5848 13.8409 58.8139 13.7519 59.0071 13.5739C59.2003 13.3958 59.3499 13.142 59.456 12.8125C59.562 12.483 59.6151 12.0909 59.6151 11.6364C59.6151 11.178 59.562 10.786 59.456 10.4602C59.3499 10.1307 59.2003 9.87689 59.0071 9.69886C58.8139 9.52083 58.5848 9.43182 58.3196 9.43182C58.0393 9.43182 57.7988 9.52083 57.598 9.69886C57.3973 9.87689 57.2438 10.1307 57.1378 10.4602C57.0317 10.786 56.9787 11.178 56.9787 11.6364C56.9787 12.0909 57.0317 12.483 57.1378 12.8125C57.2438 13.142 57.3973 13.3958 57.598 13.5739C57.7988 13.7519 58.0393 13.8409 58.3196 13.8409ZM67.2514 16.1136C66.6302 16.1136 66.0582 15.9508 65.5355 15.625C65.0166 15.2992 64.5999 14.8049 64.2855 14.142C63.9749 13.4792 63.8196 12.6439 63.8196 11.6364C63.8196 10.5833 63.9825 9.72727 64.3082 9.06818C64.6378 8.40909 65.062 7.92614 65.581 7.61932C66.1037 7.3125 66.6529 7.15909 67.2287 7.15909C67.6605 7.15909 68.0393 7.23485 68.3651 7.38636C68.6908 7.53409 68.9635 7.73295 69.1832 7.98295C69.4029 8.22917 69.5696 8.5 69.6832 8.79545H69.7287V4.36364H72.8651V16H69.7514V14.5682H69.6832C69.562 14.8636 69.3878 15.1288 69.1605 15.3636C68.937 15.5947 68.6643 15.7784 68.3423 15.9148C68.0241 16.0473 67.6605 16.1136 67.2514 16.1136ZM68.4105 13.7045C68.6984 13.7045 68.9446 13.6212 69.1491 13.4545C69.3575 13.2841 69.5166 13.0455 69.6264 12.7386C69.7401 12.428 69.7969 12.0606 69.7969 11.6364C69.7969 11.2045 69.7401 10.8352 69.6264 10.5284C69.5166 10.2178 69.3575 9.98106 69.1491 9.81818C68.9446 9.65151 68.6984 9.56818 68.4105 9.56818C68.1226 9.56818 67.8764 9.65151 67.6719 9.81818C67.4711 9.98106 67.3158 10.2178 67.206 10.5284C67.0999 10.8352 67.0469 11.2045 67.0469 11.6364C67.0469 12.0682 67.0999 12.4394 67.206 12.75C67.3158 13.0568 67.4711 13.2936 67.6719 13.4602C67.8764 13.6231 68.1226 13.7045 68.4105 13.7045ZM76.8366 16.1364C76.2798 16.1364 75.7874 16.0455 75.3594 15.8636C74.9351 15.678 74.6018 15.3977 74.3594 15.0227C74.117 14.6477 73.9957 14.1705 73.9957 13.5909C73.9957 13.1136 74.0772 12.7064 74.2401 12.3693C74.4029 12.0284 74.6302 11.75 74.9219 11.5341C75.2135 11.3182 75.5526 11.1534 75.9389 11.0398C76.3291 10.9261 76.7495 10.8523 77.2003 10.8182C77.6889 10.7803 78.081 10.7348 78.3764 10.6818C78.6757 10.625 78.8916 10.5473 79.0241 10.4489C79.1567 10.3466 79.223 10.2121 79.223 10.0455V10.0227C79.223 9.79545 79.1359 9.62121 78.9616 9.5C78.7874 9.37879 78.5639 9.31818 78.2912 9.31818C77.992 9.31818 77.7476 9.38447 77.5582 9.51705C77.3726 9.64583 77.2609 9.8447 77.223 10.1136H74.3366C74.3745 9.58333 74.5431 9.0947 74.8423 8.64773C75.1454 8.19697 75.5866 7.83712 76.1662 7.56818C76.7457 7.29545 77.4692 7.15909 78.3366 7.15909C78.9616 7.15909 79.5223 7.23295 80.0185 7.38068C80.5147 7.52462 80.937 7.72727 81.2855 7.98864C81.634 8.24621 81.8991 8.54924 82.081 8.89773C82.2666 9.24242 82.3594 9.61742 82.3594 10.0227V16H79.4276V14.7727H79.3594C79.1851 15.0985 78.973 15.3617 78.723 15.5625C78.4768 15.7633 78.1946 15.9091 77.8764 16C77.562 16.0909 77.2154 16.1364 76.8366 16.1364ZM77.8594 14.1591C78.098 14.1591 78.3215 14.1098 78.5298 14.0114C78.742 13.9129 78.9143 13.7708 79.0469 13.5852C79.1795 13.3996 79.2457 13.1742 79.2457 12.9091V12.1818C79.1624 12.2159 79.0734 12.2481 78.9787 12.2784C78.8878 12.3087 78.7893 12.3371 78.6832 12.3636C78.581 12.3902 78.4711 12.4148 78.3537 12.4375C78.2401 12.4602 78.1207 12.4811 77.9957 12.5C77.7533 12.5379 77.5545 12.6004 77.3991 12.6875C77.2476 12.7708 77.134 12.875 77.0582 13C76.9863 13.1212 76.9503 13.2576 76.9503 13.4091C76.9503 13.6515 77.0355 13.8371 77.206 13.9659C77.3764 14.0947 77.5942 14.1591 77.8594 14.1591ZM87.017 16.1136C86.3958 16.1136 85.8239 15.9508 85.3011 15.625C84.7822 15.2992 84.3655 14.8049 84.0511 14.142C83.7405 13.4792 83.5852 12.6439 83.5852 11.6364C83.5852 10.5833 83.7481 9.72727 84.0739 9.06818C84.4034 8.40909 84.8277 7.92614 85.3466 7.61932C85.8693 7.3125 86.4186 7.15909 86.9943 7.15909C87.4261 7.15909 87.8049 7.23485 88.1307 7.38636C88.4564 7.53409 88.7292 7.73295 88.9489 7.98295C89.1686 8.22917 89.3352 8.5 89.4489 8.79545H89.4943V4.36364H92.6307V16H89.517V14.5682H89.4489C89.3277 14.8636 89.1534 15.1288 88.9261 15.3636C88.7027 15.5947 88.4299 15.7784 88.108 15.9148C87.7898 16.0473 87.4261 16.1136 87.017 16.1136ZM88.1761 13.7045C88.464 13.7045 88.7102 13.6212 88.9148 13.4545C89.1231 13.2841 89.2822 13.0455 89.392 12.7386C89.5057 12.428 89.5625 12.0606 89.5625 11.6364C89.5625 11.2045 89.5057 10.8352 89.392 10.5284C89.2822 10.2178 89.1231 9.98106 88.9148 9.81818C88.7102 9.65151 88.464 9.56818 88.1761 9.56818C87.8883 9.56818 87.642 9.65151 87.4375 9.81818C87.2367 9.98106 87.0814 10.2178 86.9716 10.5284C86.8655 10.8352 86.8125 11.2045 86.8125 11.6364C86.8125 12.0682 86.8655 12.4394 86.9716 12.75C87.0814 13.0568 87.2367 13.2936 87.4375 13.4602C87.642 13.6231 87.8883 13.7045 88.1761 13.7045ZM99.8295 12.1818V7.27273H102.966V16H99.9886V14.3409H99.8977C99.7083 14.8977 99.3769 15.3333 98.9034 15.6477C98.4299 15.9583 97.8674 16.1136 97.2159 16.1136C96.6061 16.1136 96.072 15.9735 95.6136 15.6932C95.1591 15.4129 94.8049 15.0265 94.5511 14.5341C94.3011 14.0417 94.1742 13.4773 94.1705 12.8409V7.27273H97.3068V12.1818C97.3106 12.6136 97.4205 12.9527 97.6364 13.1989C97.8561 13.4451 98.1629 13.5682 98.5568 13.5682C98.8182 13.5682 99.0436 13.5133 99.233 13.4034C99.4261 13.2898 99.5739 13.1307 99.6761 12.9261C99.7822 12.7178 99.8333 12.4697 99.8295 12.1818ZM107.266 7.27273L108.538 9.97727L109.879 7.27273H112.993L110.652 11.6364L113.107 16H110.016L108.538 13.2273L107.107 16H103.97L106.447 11.6364L104.129 7.27273H107.266Z" fill="#F5F5F5"/>
<defs>
<linearGradient id="paint0_linear_414_30568" x1="25.5" y1="11.5" x2="16.5" y2="26" gradientUnits="userSpaceOnUse">
<stop stop-color="#00C781"/>
<stop offset="1" stop-color="#00613F"/>
</linearGradient>
<linearGradient id="paint1_linear_414_30568" x1="26.5" y1="3.5" x2="18.5" y2="9.5" gradientUnits="userSpaceOnUse">
<stop stop-color="#FF2957"/>
<stop offset="1" stop-color="#991934"/>
</linearGradient>
</defs>
</svg>
