<svg width="82" height="49" viewBox="0 0 82 49" fill="none" xmlns="http://www.w3.org/2000/svg">
<path d="M38.9874 4.37289C39.56 4.90219 39.8539 5.19606 40.0694 5.93987C40.0418 7.78085 39.2634 8.56472 38.0067 9.79065C37.6588 10.1422 37.3111 10.494 36.9637 10.8461C36.7146 11.0955 36.7146 11.0955 36.4604 11.35C35.9285 11.8926 35.4347 12.4604 34.9465 13.0413C34.1482 13.9406 33.3547 14.7951 32.2244 15.2751C30.9593 15.2751 29.9961 14.9881 28.8091 14.5916C26.026 13.7402 23.1793 13.9693 20.592 15.2751C17.9678 16.8365 16.1315 19.119 15.3845 22.0598C14.8147 25.026 15.2779 27.8447 16.8724 30.4448C18.4515 32.7085 20.5075 34.236 23.2972 34.7457C27.5543 35.0377 27.5543 35.0377 31.3071 33.3224C32.9503 31.8551 34.4246 30.2134 35.8626 28.5528C37.586 26.6011 38.7426 25.6154 41.422 25.4105C42.8084 25.3662 44.1944 25.3599 45.5813 25.3563C45.8787 25.3552 45.8787 25.3552 46.1821 25.354C47.23 25.35 48.2779 25.3476 49.3258 25.3464C50.4027 25.3449 51.4795 25.3385 52.5564 25.3309C53.3901 25.326 54.2237 25.3246 55.0573 25.3242C55.4542 25.3234 55.8511 25.3213 56.248 25.3177C60.7347 25.2807 60.7347 25.2807 62.5277 26.618C62.6561 26.761 62.7844 26.9041 62.9167 27.0514C63.0654 27.213 63.2141 27.3745 63.3672 27.5409C63.5181 27.7126 63.669 27.8842 63.8245 28.061C63.9867 28.239 64.1489 28.417 64.316 28.6004C64.6461 28.9628 64.9747 29.3267 65.3017 29.6918C65.8502 30.302 66.4095 30.9017 66.971 31.5003C67.972 32.5679 68.9602 33.6468 69.945 34.729C71.0264 35.9174 72.1239 37.0904 73.2239 38.262C74.2341 39.3391 75.2312 40.4272 76.224 41.52C76.8412 42.1932 77.4643 42.8606 78.0899 43.5263C78.6402 44.1119 79.1889 44.699 79.7373 45.2864C80.0687 45.641 80.4013 45.9946 80.7341 46.3481C80.9063 46.5351 81.0786 46.7221 81.2561 46.9148C81.4025 47.0723 81.549 47.2298 81.6999 47.392C82 47.815 82 47.815 82 48.6152C79.5591 48.6399 77.1181 48.6589 74.6771 48.6705C73.5435 48.676 72.4101 48.6836 71.2766 48.6957C70.182 48.7073 69.0876 48.7137 67.993 48.7164C67.5761 48.7184 67.1591 48.7222 66.7422 48.728C66.1567 48.7358 65.5717 48.7368 64.9862 48.7363C64.6534 48.7387 64.3206 48.741 63.9777 48.7435C62.3127 48.5098 61.3153 47.4994 60.257 46.2814C59.4921 45.4184 58.7199 44.5833 57.8899 43.7809C57.022 42.9387 56.2232 42.0572 55.4299 41.147C54.7594 40.4048 54.0406 39.7158 53.3217 39.0195C52.612 38.3074 51.9581 37.5546 51.3076 36.7899C50.6873 36.1303 50.2124 35.8329 49.3083 35.6959C48.1502 35.8544 47.7765 36.3122 46.9846 37.1462C46.7897 37.3478 46.7897 37.3478 46.5909 37.5536C45.8874 38.2875 45.2131 39.0442 44.5499 39.8134C41.7068 43.0616 38.3295 45.4889 34.3716 47.2482C34.2094 47.3214 34.0471 47.3945 33.88 47.4699C31.0096 48.6772 28.0676 49.0252 24.9711 48.9986C24.6396 48.9966 24.3081 48.9946 23.9665 48.9925C21.4167 48.9469 19.2062 48.6738 16.8047 47.815C16.4822 47.7019 16.1596 47.5888 15.8273 47.4723C9.39047 44.9822 4.8301 40.0491 1.84902 34.0456C-0.697545 28.2411 -0.509807 21.5183 1.77505 15.6825C4.65822 9.24903 9.32987 4.33709 15.9932 1.67234C23.7963 -1.2038 32.1361 -0.411969 38.9874 4.37289Z" fill="url(#paint0_linear_414_30577)"/>
<path d="M68.0125 0.0216945C68.4169 0.0237161 68.8212 0.0252552 69.2256 0.0263349C70.2835 0.0304429 71.3413 0.0410536 72.3991 0.0530712C73.4811 0.0641948 74.5632 0.0690965 75.6452 0.0745394C77.7636 0.0861036 79.8819 0.104545 82.0002 0.127384C81.8025 1.04576 81.5847 1.44662 80.8979 2.08899C80.2465 2.7207 79.6299 3.35621 79.044 4.05059C77.8101 5.49878 76.5093 6.88356 75.2183 8.27924C74.3461 9.22214 73.4786 10.1693 72.6138 11.1191C72.4832 11.2626 72.3525 11.4061 72.2178 11.5539C71.6977 12.1251 71.1779 12.6965 70.6583 13.2682C69.0287 15.0609 67.3931 16.8478 65.7494 18.6273C65.5864 18.8043 65.4233 18.9812 65.2554 19.1635C64.7822 19.6748 64.3059 20.1829 63.8287 20.6904C63.6674 20.8656 63.5061 21.0407 63.3398 21.2212C63.1805 21.3899 63.0211 21.5587 62.8569 21.7325C62.7161 21.8834 62.5753 22.0343 62.4303 22.1897C61.2745 23.1557 60.0342 23.208 58.5909 23.2127C58.3908 23.2154 58.1907 23.218 57.9846 23.2208C57.3254 23.2287 56.6663 23.2324 56.0071 23.2354C55.5468 23.2385 55.0865 23.2416 54.6262 23.2447C53.6619 23.2504 52.6976 23.2536 51.7332 23.2555C50.5012 23.2584 49.2696 23.2714 48.0377 23.2869C47.0869 23.297 46.1363 23.2997 45.1855 23.3006C44.7315 23.3022 44.2775 23.3065 43.8236 23.3137C39.5387 23.3762 39.5387 23.3762 38.0139 21.9293C37.8906 21.7883 37.7674 21.6473 37.6404 21.5021C37.5147 21.3688 37.3889 21.2354 37.2593 21.0981C36.9196 20.7157 36.6109 20.3057 36.3043 19.8956C36.1004 19.6309 35.8964 19.3662 35.6863 19.0934C35.1289 18.0574 35.0444 17.5256 35.2354 16.3613C35.6365 15.6591 36.1424 15.0917 36.6884 14.5012C36.8336 14.3373 36.9788 14.1734 37.1284 14.0046C38.3219 12.6695 39.5667 11.3877 40.8472 10.1383C41.1179 9.84796 41.1179 9.84796 41.3942 9.55174C41.9161 9.05606 41.9161 9.05606 42.7846 8.73476C44.2845 8.81069 44.9121 9.62332 45.9245 10.6795C46.1198 10.8772 46.3151 11.075 46.5164 11.2787C46.8862 11.6532 47.2536 12.0303 47.6176 12.4107C48.2299 13.0073 48.5749 13.1105 49.4235 13.2667C50.9934 13.0378 51.688 12.0939 52.7388 10.95C52.9314 10.7488 53.1239 10.5475 53.3223 10.3402C54.234 9.38039 55.1162 8.3993 55.9768 7.3925C56.8257 6.40039 57.7239 5.47437 58.6512 4.5579C59.491 3.72765 60.2827 2.92889 60.9957 1.98118C62.9679 -0.207533 65.3003 -0.0183066 68.0125 0.0216945Z" fill="url(#paint1_linear_414_30577)"/>
<defs>
<linearGradient id="paint0_linear_414_30577" x1="59.7429" y1="26.8333" x2="38.7809" y2="60.7432" gradientUnits="userSpaceOnUse">
<stop stop-color="#00C781"/>
<stop offset="1" stop-color="#00613F"/>
</linearGradient>
<linearGradient id="paint1_linear_414_30577" x1="62.0859" y1="8.16667" x2="43.3981" y2="22.2397" gradientUnits="userSpaceOnUse">
<stop stop-color="#FF2957"/>
<stop offset="1" stop-color="#991934"/>
</linearGradient>
</defs>
</svg>
